<svg viewBox="0 0 24.0 24.0" fill="currentColor"><path d="M12,10C10.8954,10 10,10.8954 10,12C10,13.1046 10.8954,14 12,14C13.1046,14 14,13.1046 14,12C14,10.8954 13.1046,10 12,10Z" id="path_0"/><path d="M10.9,1H13.1V1.2284C13.1,2.5881 13.919,3.8139 15.1752,4.3342C16.4314,4.8545 17.8773,4.5669 18.8388,3.6055L19.0004,3.4439L20.556,4.9995L20.3946,5.1609C19.4331,6.1224 19.1455,7.5684 19.6659,8.8247C20.1862,10.0809 21.4121,10.9 22.7718,10.9H23V13.1H22.7721C21.4123,13.1 20.1864,13.9191 19.666,15.1754C19.1457,16.4317 19.4333,17.8778 20.3948,18.8393L20.5561,19.0006L19.0005,20.5562L18.8393,20.395C17.8777,19.4335 16.4317,19.1458 15.1754,19.6662C13.9191,20.1866 13.1,21.4125 13.1,22.7723V23H10.9V22.7724C10.9,21.4125 10.0808,20.1866 8.8245,19.6662C7.5682,19.1458 6.1221,19.4335 5.1605,20.395L4.9997,20.5558L3.4441,19.0002L3.6051,18.8391C4.5666,17.8777 4.8542,16.4316 4.3339,15.1754C3.8135,13.9191 2.5877,13.1 1.2279,13.1H1V10.9H1.2282C2.5879,10.9 3.8137,10.0809 4.3341,8.8247C4.8544,7.5685 4.5668,6.1225 3.6053,5.1611L3.4441,4.9998L4.9998,3.4442L5.161,3.6055C6.1225,4.567 7.5685,4.8546 8.8247,4.3342C10.0809,3.8139 10.9,2.588 10.9,1.2283V1ZM4.929,11.9998L7,16.9998L12,19.0708L17,16.9998L19.0711,11.9998L17,6.9998L12,4.9287L7,6.9998L4.929,11.9998Z" fill-rule="evenodd" id="path_1"/></svg>