<?xml version="1.0" encoding="UTF-8"?>
<svg version="1.1" xmlns="http://www.w3.org/2000/svg" width="32" height="32">
<path d="M0 0 C4.63535813 2.15213056 8.01334219 5.23793392 10 10 C10.47845787 13.80651159 10.37844376 17.54638798 10.25 21.375 C10.23195312 22.39722656 10.21390625 23.41945313 10.1953125 24.47265625 C10.14839491 26.98274749 10.08276729 29.49087764 10 32 C6.45861382 32.11681812 2.9177276 32.187455 -0.625 32.25 C-1.62402344 32.28351562 -2.62304688 32.31703125 -3.65234375 32.3515625 C-9.81229285 32.43315123 -13.31627786 32.1132688 -18 28 C-21.62833663 24.18069828 -22.31000458 21.11720994 -22.5 16 C-22.25156236 9.3087462 -20.3143755 6.19865673 -15.5 1.625 C-10.33499991 -0.77303575 -5.5997712 -0.75381535 0 0 Z " fill="#D50519" transform="translate(22,0)"/>
<path d="M0 0 C0 1.65 0 3.3 0 5 C1.32 5 2.64 5 4 5 C4 3.68 4 2.36 4 1 C7.28638006 1.56661725 8.92175228 2.37453859 11 5 C11.99174904 9.87609944 11.68571999 13.85713335 9.125 18.125 C4.74441398 20.75335161 0.98953023 20.92554524 -4 20 C-6.625 18.1875 -6.625 18.1875 -8 16 C-8 15.01 -8 14.02 -8 13 C-6.68 13 -5.36 13 -4 13 C-4 11.68 -4 10.36 -4 9 C-5.32 9.33 -6.64 9.66 -8 10 C-8.8125 7.8125 -8.8125 7.8125 -9 5 C-5.9742869 1.10979744 -5.04048781 0 0 0 Z " fill="#FCF1F2" transform="translate(15,6)"/>
<path d="M0 0 C1.60420518 3.20841035 1.47462745 6.5193987 1 10 C-0.5 12.5 -0.5 12.5 -3 14 C-6.4806013 14.47462745 -9.79158965 14.60420518 -13 13 C-10.90320497 8.04393902 -5.99962826 0 0 0 Z " fill="#D60B1E" transform="translate(23,10)"/>
<path d="M0 0 C0.33 0 0.66 0 1 0 C1.8125 3.1875 1.8125 3.1875 2 7 C0.1875 9.9375 0.1875 9.9375 -3 12 C-6.44948935 12.63426094 -9.55108536 12.63976494 -13 12 C-15.625 10.1875 -15.625 10.1875 -17 8 C-17 7.01 -17 6.02 -17 5 C-15.02 5.99 -15.02 5.99 -13 7 C-13.33 7.66 -13.66 8.32 -14 9 C-12.39667209 9.08121924 -10.79215974 9.13929134 -9.1875 9.1875 C-8.29417969 9.22230469 -7.40085937 9.25710937 -6.48046875 9.29296875 C-3.96891497 9.20368581 -3.96891497 9.20368581 -2.21875 7.6875 C-0.47350038 5.27100052 -0.32417281 2.91755527 0 0 Z " fill="#FCF2F3" transform="translate(24,14)"/>
<path d="M0 0 C2.64 0.33 5.28 0.66 8 1 C7.01 1.495 7.01 1.495 6 2 C6 3.32 6 4.64 6 6 C4.68 6 3.36 6 2 6 C2 4.35 2 2.7 2 1 C1.34 0.67 0.68 0.34 0 0 Z " fill="#E8737E" transform="translate(13,5)"/>
<path d="M0 0 C1.485 0.99 1.485 0.99 3 2 C3.99 2 4.98 2 6 2 C6 3.32 6 4.64 6 6 C4.68 6 3.36 6 2 6 C1.67 6.66 1.34 7.32 1 8 C0.67 5.36 0.34 2.72 0 0 Z " fill="#E76F7A" transform="translate(5,13)"/>
<path d="M0 0 C0.33 0 0.66 0 1 0 C1.875 3.1875 1.875 3.1875 2 7 C-0.5625 10 -0.5625 10 -4 12 C-7.375 11.8125 -7.375 11.8125 -10 11 C-10 10.67 -10 10.34 -10 10 C-7.36 9.34 -4.72 8.68 -2 8 C-1.34 5.36 -0.68 2.72 0 0 Z " fill="#F4C0C5" transform="translate(24,14)"/>
</svg>
