<svg version="1.1" id="Layer_1" xmlns="http://www.w3.org/2000/svg" xmlns:xlink="http://www.w3.org/1999/xlink" x="0px" y="0px"
	 width="100%" viewBox="0 0 512 512" enable-background="new 0 0 512 512" xml:space="preserve">
<path fill="#000000" opacity="1.000000" stroke="none" 
	d="
M272.000000,513.000000 
	C181.355331,513.000000 91.210663,513.000000 1.032996,513.000000 
	C1.032996,342.396973 1.032996,171.793930 1.032996,1.095450 
	C171.561356,1.095450 342.122772,1.095450 512.842102,1.095450 
	C512.842102,171.666550 512.842102,342.333252 512.842102,513.000000 
	C432.793915,513.000000 352.646942,513.000000 272.000000,513.000000 
M140.769302,442.085419 
	C142.808105,438.374023 144.846909,434.662598 147.283096,430.364746 
	C152.827591,421.150452 158.475052,411.995972 163.875320,402.697876 
	C166.791122,397.677490 169.047699,392.270477 172.020691,387.287933 
	C177.145187,378.699646 182.732193,370.387238 187.852386,361.796509 
	C190.309158,357.674469 191.866318,353.017120 194.313721,348.888428 
	C200.168274,339.011993 206.566284,329.452637 212.272461,319.494568 
	C220.335098,305.424072 227.848251,291.039673 235.827011,276.919830 
	C243.156555,263.948883 250.815247,251.164276 258.284882,238.272049 
	C264.715820,227.172607 271.059204,216.022430 277.489044,204.922348 
	C282.512024,196.250977 287.853333,187.750641 292.505341,178.886810 
	C293.719025,176.574219 293.830322,172.784088 292.799377,170.379333 
	C290.646729,165.358231 287.366821,160.824661 284.601471,156.060944 
	C280.562775,149.103729 276.641388,142.077499 272.537201,135.159485 
	C268.091766,127.666260 263.346283,120.348541 258.996399,112.801682 
	C252.150681,100.924637 245.507706,88.930389 238.819504,76.963051 
	C236.743820,73.249023 233.972473,71.859543 229.452728,71.873543 
	C168.630875,72.061821 107.808235,71.999458 46.985790,72.000679 
	C45.652809,72.000710 44.201084,71.687332 43.017796,72.112747 
	C41.630756,72.611404 39.992588,73.477493 39.298096,74.670242 
	C32.939709,85.590378 26.890574,96.691269 20.488768,107.585197 
	C16.103411,115.047737 11.081609,122.140549 6.808102,129.662140 
	C5.384054,132.168549 4.562254,135.277924 7.082995,138.382584 
	C9.777512,141.701263 11.822523,145.568985 13.985169,149.293350 
	C18.571627,157.191849 22.890285,165.252090 27.698359,173.010757 
	C28.752634,174.712021 31.387142,176.444046 33.301895,176.452988 
	C72.279526,176.634842 111.258316,176.567184 150.236877,176.550827 
	C157.766403,176.547653 165.295929,176.550385 173.175003,176.550385 
	C170.909897,181.419464 169.385727,185.498520 167.222961,189.204926 
	C158.196243,204.674377 148.883270,219.976852 139.866180,235.451828 
	C134.805008,244.137711 130.226822,253.103836 125.235916,261.832123 
	C116.807671,276.571808 108.263718,291.245880 99.671776,305.890839 
	C98.046715,308.660767 95.709480,311.021210 94.154861,313.822540 
	C89.645226,321.948669 85.435417,330.240662 80.974030,338.394318 
	C77.743881,344.297791 74.300179,350.084442 70.253815,356.047058 
	C64.187233,366.139984 58.023930,376.176880 52.120865,386.364532 
	C50.611927,388.968719 49.926552,392.050049 48.292294,395.323975 
	C44.696701,399.860046 44.540569,403.737183 48.494473,408.750732 
	C52.655422,414.026794 55.185158,420.579865 58.503880,426.532471 
	C61.375103,431.682373 64.353157,436.772736 67.411049,442.662506 
	C68.737717,443.097809 70.062721,443.904205 71.391304,443.910187 
	C82.951607,443.962128 94.512550,443.870575 106.689621,443.900787 
	C107.102348,443.875885 107.515083,443.850983 108.863342,443.979218 
	C117.827095,443.980621 126.792473,444.067627 135.752945,443.896942 
	C137.199677,443.869385 138.624557,442.695282 140.004990,441.999542 
	C140.004990,441.999542 140.048660,442.059814 140.769302,442.085419 
M435.078552,213.099075 
	C430.699646,213.126999 426.320709,213.154922 421.140656,213.050598 
	C415.798615,213.209198 412.295166,215.479584 409.948456,220.643478 
	C406.490234,228.253433 402.366211,235.588104 398.150085,242.821060 
	C387.759491,260.646790 377.154907,278.347809 366.298340,296.669403 
	C365.419922,295.549133 364.703156,294.845642 364.233246,294.004211 
	C357.313660,281.613251 350.605988,269.099792 343.471832,256.834198 
	C338.398193,248.111191 332.579498,239.822906 327.455627,231.127106 
	C325.118896,227.161407 323.838226,222.585571 321.696625,218.485992 
	C320.978455,217.111267 319.157837,215.701111 317.691589,215.520386 
	C316.500885,215.373627 314.771362,216.791306 313.843536,217.961411 
	C312.364502,219.826614 311.377136,222.077072 310.139160,224.138992 
	C306.957428,229.438339 303.622345,234.650604 300.596069,240.036743 
	C298.009033,244.641113 295.956665,249.548615 293.321808,254.122726 
	C290.001587,259.886536 286.193451,265.368713 282.854279,271.122345 
	C280.336426,275.460754 278.422821,280.150787 275.890015,284.479370 
	C270.993591,292.847198 266.274811,301.372925 260.664368,309.250610 
	C256.710785,314.801880 255.861084,319.283081 261.121490,324.105957 
	C261.709564,324.645142 262.192169,325.337494 262.597168,326.032532 
	C270.736237,340.000763 278.969818,353.915710 286.940582,367.979584 
	C292.117554,377.113953 296.748718,386.557220 301.905487,395.703613 
	C309.585754,409.325897 317.427551,422.859436 325.383606,436.322632 
	C328.214874,441.113708 331.733368,444.159088 338.374969,443.960785 
	C357.844818,443.379425 377.346558,443.568848 396.828094,443.903595 
	C401.276062,443.980042 403.532501,441.837097 405.420746,438.767212 
	C408.016418,434.547150 410.198975,430.074829 412.614807,425.741974 
	C419.350647,413.661163 426.033722,401.549622 432.913696,389.551178 
	C435.283569,385.418182 438.422516,381.724762 440.773743,377.582825 
	C445.891205,368.567993 450.610046,359.327057 455.714478,350.304504 
	C460.375366,342.066040 465.380463,334.023132 470.140747,325.839844 
	C475.205292,317.133392 480.070679,308.310364 485.185150,299.633820 
	C492.210510,287.715607 499.728577,276.069244 506.245087,263.883667 
	C507.743439,261.081757 511.339417,257.949829 508.657990,253.316345 
	C501.954468,241.732788 495.885376,229.781952 489.174866,218.202667 
	C487.351624,215.056534 485.024780,211.357346 479.754486,213.795319 
	C477.993713,214.609848 475.309967,213.429199 472.108673,213.066605 
	C460.074097,213.110901 448.039490,213.155212 435.078552,213.099075 
M421.991486,125.612419 
	C423.041199,124.168411 424.509613,122.865395 425.053253,121.250977 
	C426.178375,117.909714 429.876495,115.079620 427.301910,110.883179 
	C422.803040,103.550194 418.317352,96.207794 413.942352,88.800720 
	C411.810822,85.191917 409.639984,81.553711 408.036926,77.700035 
	C406.396790,73.757271 404.539032,71.805420 399.637482,71.842247 
	C362.168579,72.123741 324.696625,71.997131 287.225616,71.997429 
	C285.271881,71.997444 283.318176,71.997429 280.267181,71.997429 
	C281.312531,74.740013 281.775848,76.724907 282.758453,78.406326 
	C288.326263,87.933800 294.027100,97.383476 299.665894,106.869576 
	C305.495148,116.676094 311.317535,126.486763 317.111908,136.313919 
	C318.100769,137.990997 318.943237,139.755096 319.836823,141.487503 
	C321.783569,145.261597 323.635712,149.087357 325.681580,152.806686 
	C328.172577,157.335190 331.256531,161.587234 333.307526,166.297012 
	C336.788361,174.290009 339.806213,176.649826 348.461761,176.643585 
	C360.615509,176.634827 372.787415,176.243668 384.915955,176.796646 
	C391.783112,177.109772 395.185333,173.904709 397.495483,168.273331 
	C397.859070,167.387070 398.359192,166.554306 398.825745,165.713226 
	C402.237122,159.563416 405.548248,153.354706 409.100739,147.287369 
	C413.226929,140.240173 417.566864,133.318130 421.991486,125.612419 
z"/>
<path fill="#28AFA4" opacity="1.000000" stroke="none" 
	d="
M107.927811,443.826080 
	C107.515083,443.850983 107.102348,443.875885 106.159531,443.546539 
	C103.926735,442.763275 102.227768,441.980621 100.520714,441.962585 
	C89.442787,441.845428 78.363106,441.894653 67.283997,441.889404 
	C64.353157,436.772736 61.375103,431.682373 58.503880,426.532471 
	C55.185158,420.579865 52.655422,414.026794 48.494473,408.750732 
	C44.540569,403.737183 44.696701,399.860046 48.874516,394.957886 
	C51.931522,390.733795 54.651905,387.008972 56.831043,382.990631 
	C61.681629,374.046082 66.261490,364.954712 70.951691,355.923187 
	C74.300179,350.084442 77.743881,344.297791 80.974030,338.394318 
	C85.435417,330.240662 89.645226,321.948669 94.154861,313.822540 
	C95.709480,311.021210 98.046715,308.660767 99.671776,305.890839 
	C108.263718,291.245880 116.807671,276.571808 125.235916,261.832123 
	C130.226822,253.103836 134.805008,244.137711 139.866180,235.451828 
	C148.883270,219.976852 158.196243,204.674377 167.222961,189.204926 
	C169.385727,185.498520 170.909897,181.419464 173.175003,176.550385 
	C165.295929,176.550385 157.766403,176.547653 150.236877,176.550827 
	C111.258316,176.567184 72.279526,176.634842 33.301895,176.452988 
	C31.387142,176.444046 28.752634,174.712021 27.698359,173.010757 
	C22.890285,165.252090 18.571627,157.191849 13.985169,149.293350 
	C11.822523,145.568985 9.777512,141.701263 7.082995,138.382584 
	C4.562254,135.277924 5.384054,132.168549 6.808102,129.662140 
	C11.081609,122.140549 16.103411,115.047737 20.488768,107.585197 
	C26.890574,96.691269 32.939709,85.590378 39.298096,74.670242 
	C39.992588,73.477493 41.630756,72.611404 43.017796,72.112747 
	C44.201084,71.687332 45.652809,72.000710 46.985790,72.000679 
	C107.808235,71.999458 168.630875,72.061821 229.452728,71.873543 
	C233.972473,71.859543 236.743820,73.249023 238.819504,76.963051 
	C245.507706,88.930389 252.150681,100.924637 258.996399,112.801682 
	C263.346283,120.348541 268.091766,127.666260 272.537201,135.159485 
	C276.641388,142.077499 280.562775,149.103729 284.601471,156.060944 
	C287.366821,160.824661 290.646729,165.358231 292.799377,170.379333 
	C293.830322,172.784088 293.719025,176.574219 292.505341,178.886810 
	C287.853333,187.750641 282.512024,196.250977 277.489044,204.922348 
	C271.059204,216.022430 264.715820,227.172607 258.284882,238.272049 
	C250.815247,251.164276 243.156555,263.948883 235.827011,276.919830 
	C227.848251,291.039673 220.335098,305.424072 212.272461,319.494568 
	C206.566284,329.452637 200.168274,339.011993 194.313721,348.888428 
	C191.866318,353.017120 190.309158,357.674469 187.852386,361.796509 
	C182.732193,370.387238 177.145187,378.699646 172.020691,387.287933 
	C169.047699,392.270477 166.791122,397.677490 163.875320,402.697876 
	C158.475052,411.995972 152.827591,421.150452 146.791382,430.809875 
	C144.216019,434.856598 142.132339,438.458221 140.048660,442.059814 
	C140.048660,442.059814 140.004990,441.999542 139.561081,441.985718 
	C130.654724,441.949615 122.189728,441.809998 113.731728,441.993347 
	C111.784752,442.035553 109.861809,443.185760 107.927811,443.826080 
z"/>
<path fill="#28AFA4" opacity="1.000000" stroke="none" 
	d="
M473.048126,213.160583 
	C475.309967,213.429199 477.993713,214.609848 479.754486,213.795319 
	C485.024780,211.357346 487.351624,215.056534 489.174866,218.202667 
	C495.885376,229.781952 501.954468,241.732788 508.657990,253.316345 
	C511.339417,257.949829 507.743439,261.081757 506.245087,263.883667 
	C499.728577,276.069244 492.210510,287.715607 485.185150,299.633820 
	C480.070679,308.310364 475.205292,317.133392 470.140747,325.839844 
	C465.380463,334.023132 460.375366,342.066040 455.714478,350.304504 
	C450.610046,359.327057 445.891205,368.567993 440.773743,377.582825 
	C438.422516,381.724762 435.283569,385.418182 432.913696,389.551178 
	C426.033722,401.549622 419.350647,413.661163 412.614807,425.741974 
	C410.198975,430.074829 408.016418,434.547150 405.420746,438.767212 
	C403.532501,441.837097 401.276062,443.980042 396.828094,443.903595 
	C377.346558,443.568848 357.844818,443.379425 338.374969,443.960785 
	C331.733368,444.159088 328.214874,441.113708 325.383606,436.322632 
	C317.427551,422.859436 309.585754,409.325897 301.905487,395.703613 
	C296.748718,386.557220 292.117554,377.113953 286.940582,367.979584 
	C278.969818,353.915710 270.736237,340.000763 262.597168,326.032532 
	C262.192169,325.337494 261.709564,324.645142 261.121490,324.105957 
	C255.861084,319.283081 256.710785,314.801880 260.664368,309.250610 
	C266.274811,301.372925 270.993591,292.847198 275.890015,284.479370 
	C278.422821,280.150787 280.336426,275.460754 282.854279,271.122345 
	C286.193451,265.368713 290.001587,259.886536 293.321808,254.122726 
	C295.956665,249.548615 298.009033,244.641113 300.596069,240.036743 
	C303.622345,234.650604 306.957428,229.438339 310.139160,224.138992 
	C311.377136,222.077072 312.364502,219.826614 313.843536,217.961411 
	C314.771362,216.791306 316.500885,215.373627 317.691589,215.520386 
	C319.157837,215.701111 320.978455,217.111267 321.696625,218.485992 
	C323.838226,222.585571 325.118896,227.161407 327.455627,231.127106 
	C332.579498,239.822906 338.398193,248.111191 343.471832,256.834198 
	C350.605988,269.099792 357.313660,281.613251 364.233246,294.004211 
	C364.703156,294.845642 365.419922,295.549133 366.298340,296.669403 
	C377.154907,278.347809 387.759491,260.646790 398.150085,242.821060 
	C402.366211,235.588104 406.490234,228.253433 409.948456,220.643478 
	C412.295166,215.479584 415.798615,213.209198 421.638336,213.481232 
	C423.479309,214.602097 424.781219,215.765717 426.174194,215.887497 
	C429.424683,216.171677 432.718903,215.955063 436.464233,215.954681 
	C447.325256,215.967163 457.720428,216.089813 468.106689,215.839828 
	C469.774384,215.799713 471.401978,214.095520 473.048126,213.160583 
z"/>
<path fill="#27AEA4" opacity="1.000000" stroke="none" 
	d="
M421.902771,125.977089 
	C417.566864,133.318130 413.226929,140.240173 409.100739,147.287369 
	C405.548248,153.354706 402.237122,159.563416 398.825745,165.713226 
	C398.359192,166.554306 397.859070,167.387070 397.495483,168.273331 
	C395.185333,173.904709 391.783112,177.109772 384.915955,176.796646 
	C372.787415,176.243668 360.615509,176.634827 348.461761,176.643585 
	C339.806213,176.649826 336.788361,174.290009 333.307526,166.297012 
	C331.256531,161.587234 328.172577,157.335190 325.681580,152.806686 
	C323.635712,149.087357 321.783569,145.261597 319.836823,141.487503 
	C318.943237,139.755096 318.100769,137.990997 317.111908,136.313919 
	C311.317535,126.486763 305.495148,116.676094 299.665894,106.869576 
	C294.027100,97.383476 288.326263,87.933800 282.758453,78.406326 
	C281.775848,76.724907 281.312531,74.740013 280.267181,71.997429 
	C283.318176,71.997429 285.271881,71.997444 287.225616,71.997429 
	C324.696625,71.997131 362.168579,72.123741 399.637482,71.842247 
	C404.539032,71.805420 406.396790,73.757271 408.036926,77.700035 
	C409.639984,81.553711 411.810822,85.191917 413.942352,88.800720 
	C418.317352,96.207794 422.803040,103.550194 427.301910,110.883179 
	C429.876495,115.079620 426.178375,117.909714 425.053253,121.250977 
	C424.509613,122.865395 423.041199,124.168411 421.902771,125.977089 
z"/>
<path fill="#1E8880" opacity="1.000000" stroke="none" 
	d="
M472.578400,213.113602 
	C471.401978,214.095520 469.774384,215.799713 468.106689,215.839828 
	C457.720428,216.089813 447.325256,215.967163 436.466064,215.612854 
	C436.001007,214.571594 436.002960,213.885559 436.004913,213.199509 
	C448.039490,213.155212 460.074097,213.110901 472.578400,213.113602 
z"/>
<path fill="#1E8079" opacity="1.000000" stroke="none" 
	d="
M70.602753,355.985107 
	C66.261490,364.954712 61.681629,374.046082 56.831043,382.990631 
	C54.651905,387.008972 51.931522,390.733795 49.159767,394.752014 
	C49.926552,392.050049 50.611927,388.968719 52.120865,386.364532 
	C58.023930,376.176880 64.187233,366.139984 70.602753,355.985107 
z"/>
<path fill="#1E7B73" opacity="1.000000" stroke="none" 
	d="
M67.347519,442.275940 
	C78.363106,441.894653 89.442787,441.845428 100.520714,441.962585 
	C102.227768,441.980621 103.926735,442.763275 105.851372,443.506958 
	C94.512550,443.870575 82.951607,443.962128 71.391304,443.910187 
	C70.062721,443.904205 68.737717,443.097809 67.347519,442.275940 
z"/>
<path fill="#1E7B73" opacity="1.000000" stroke="none" 
	d="
M108.395576,443.902649 
	C109.861809,443.185760 111.784752,442.035553 113.731728,441.993347 
	C122.189728,441.809998 130.654724,441.949615 139.588348,442.011536 
	C138.624557,442.695282 137.199677,443.869385 135.752945,443.896942 
	C126.792473,444.067627 117.827095,443.980621 108.395576,443.902649 
z"/>
<path fill="#1D877E" opacity="1.000000" stroke="none" 
	d="
M435.541748,213.149292 
	C436.002960,213.885559 436.001007,214.571594 435.997253,215.599472 
	C432.718903,215.955063 429.424683,216.171677 426.174194,215.887497 
	C424.781219,215.765717 423.479309,214.602097 422.038910,213.547333 
	C426.320709,213.154922 430.699646,213.126999 435.541748,213.149292 
z"/>
<path fill="#1E7B73" opacity="1.000000" stroke="none" 
	d="
M140.408981,442.072632 
	C142.132339,438.458221 144.216019,434.856598 146.592712,431.103088 
	C144.846909,434.662598 142.808105,438.374023 140.408981,442.072632 
z"/>
</svg>